<?xml version="1.0" standalone="no"?>
<!DOCTYPE svg PUBLIC "-//W3C//DTD SVG 1.0//EN" "http://www.w3.org/TR/2001/REC-SVG-20010904/DTD/svg10.dtd">
<svg xmlns="http://www.w3.org/2000/svg" xmlns:xlink="http://www.w3.org/1999/xlink" id="body_1" width="529" height="530">

<g transform="matrix(1 0 0 1 0 0)">
	<path  d="M175.5 19.1C 176.6 19.1 179.4 20.2 181.8 21.5C 184.1 22.9 186.5 25 187.1 26.2C 187.8 27.5 188.90001 30.5 189.6 33C 190.3 35.5 191.6 41.8 192.5 47C 193.3 52.2 194 61 194 66.5C 194 72 193.5 79.7 193 83.5C 192.4 87.3 190.8 94.3 189.4 99C 188 103.7 185.09999 110.9 182.9 115C 180.79999 119.1 176.59999 125.9 173.5 130C 169.3 135.7 168.1 138.1 168.5 140C 168.7 141.4 171.2 156.7 174 174C 176.8 191.3 179.4 206.9 179.8 208.7C 180.5 211.8 180.6 211.7 192.5 196.3C 199.1 187.8 206.9 177.40001 209.8 173.2C 212.7 169 217.6 160.3 226.5 142.59999L226.5 142.59999L226.2 123.99999C 226.09999 113.799995 225.7 105.29999 225.5 104.99999C 225.2 104.69999 223.1 106.399994 220.7 108.69999C 218.4 110.99999 215.2 113.29999 213.5 113.59999C 211.5 114.09999 209.6 113.79999 207.8 112.69999C 206.2 111.69999 204.8 110.09999 204.5 108.99999C 204.2 107.899994 204.5 105.299995 205.2 103.19999C 205.8 101.19999 208.59999 95.69999 211.3 90.99999C 214.1 86.299995 218.3 79.59999 220.8 75.99999C 223.3 72.399994 227.6 66.799995 230.3 63.499992C 233.1 60.199993 238.3 54.699993 241.90001 51.199993C 245.50002 47.79999 251.40001 42.999992 255.00002 40.59999C 258.6 38.29999 263.5 35.19999 266 33.79999C 268.5 32.39999 273.4 30.299992 277 29.09999C 280.6 27.99999 286.9 26.59999 291 26.09999C 295.8 25.39999 301 25.39999 305.3 25.99999C 309 26.59999 314.59998 27.99999 317.8 29.199991C 320.9 30.299992 325.19998 32.39999 327.3 33.69999C 329.3 34.89999 334.3 39.299988 338.3 43.299988C 342.19998 47.19999 346.8 52.799988 348.5 55.49999C 350.1 58.299988 352.7 63.59999 354.1 67.499985C 355.6 71.29999 357.6 78.499985 358.5 83.499985C 359.9 90.59998 360.1 95.89999 359.7 108.499985C 359.30002 120.69998 358.6 126.999985 356.7 134.99998C 355.30002 140.79999 352.40002 150.39998 350.2 156.49998C 348.1 162.59999 345.80002 168.39998 345.2 169.49998C 344.6 170.59999 342.80002 174.19998 341.2 177.49998C 339.6 180.79999 336.6 186.69998 334.5 190.49998C 332.3 194.29999 328.3 201.09999 325.4 205.49998C 322.5 209.89998 318.3 215.99998 316.1 218.99998C 313.9 221.99998 310.6 226.49998 305.5 233.39998L305.5 233.39998L308.5 232.69998C 310.1 232.29999 315.6 231.69998 320.5 231.29999C 327.1 230.9 331.8 231.19998 338 232.49998C 342.7 233.49998 348.8 235.19998 351.5 236.39998C 354.3 237.69998 359 240.19998 362 242.19998C 365 244.09998 370.1 247.99998 379 255.99998L379 255.99998L383.3 253.09999C 385.59998 251.49998 390 248.7 393 246.79999C 396 244.9 400.5 242.09999 403 240.49998C 405.5 238.89998 410.4 235.99998 414 233.89998C 417.6 231.89998 425.4 227.39998 431.5 223.99998C 437.6 220.49998 446.6 215.49998 451.5 212.79999C 456.4 210.09999 468.9 203.69998 479.3 198.49998C 489.59998 193.29999 498.69998 188.99998 499.5 188.99998C 500.3 188.99998 502.4 190.29999 504 191.99998C 505.6 193.69998 507 195.89998 507 196.99998C 507 198.09999 505.8 200.29999 504.3 201.89998C 502.69998 203.49998 493.9 208.69998 484.5 213.39998C 475.1 218.09998 462.8 224.49998 457 227.59998C 451.2 230.69998 442.2 235.69998 437 238.69998C 431.8 241.69998 426.8 244.59998 426 245.09998C 425.2 245.59998 422.5 247.19998 420 248.59998C 417.5 250.09998 412.1 253.39998 408 255.99997C 403.9 258.59998 398.9 261.49997 397 262.49997C 395.1 263.49997 392.3 265.19998 388.2 268.49997L388.2 268.49997L390.5 271.99997C 391.7 273.89996 393.9 277.99997 395.3 280.99997C 396.8 283.99997 398.59998 288.49997 399.5 290.99997C 400.4 293.49997 402.2 298.59998 403.5 302.49997C 404.8 306.39996 406.6 313.59998 407.4 318.49997C 408.3 323.39996 409.3 333.09998 409.69998 339.99997C 410.09998 348.89996 409.8 356.19998 408.59998 365.49997C 407.69998 372.59998 405.8 382.79996 404.39996 387.99997C 402.99997 393.19998 400.09998 401.99997 397.89996 407.49997C 395.79996 412.99997 391.89996 420.99997 389.19995 425.39996C 386.59995 429.69995 384.09995 433.99997 383.49994 434.89996C 382.89993 435.79996 381.39993 438.09998 380.09995 439.99997C 378.69995 441.89996 376.49994 444.79996 375.09995 446.49997C 373.69995 448.09998 367.99994 453.99997 362.49994 459.49997C 356.99994 464.99997 349.79993 471.59998 346.49994 474.09998C 343.19995 476.69998 336.39993 481.19998 331.49994 484.09998C 326.59995 487.09998 318.19995 491.49997 312.99994 493.89996C 307.79993 496.19995 301.69995 498.99997 299.49994 499.99997C 297.29993 500.99997 291.19995 503.19998 285.99994 504.79996C 280.79993 506.49997 272.39993 508.59995 267.49994 509.59995C 261.99994 510.69995 254.19994 511.29996 247.49994 511.29996C 238.79994 511.19995 234.99994 510.69995 228.99994 508.79996C 224.89993 507.49997 219.49994 504.99997 216.99994 503.29996C 214.49994 501.69995 210.29994 497.89996 207.69994 494.89996C 204.99994 491.89996 201.89993 486.99997 200.79994 483.99997C 199.29994 480.09998 198.49994 475.39996 198.19994 467.99997C 197.99994 462.19998 198.29994 454.79996 198.99994 451.49997C 199.59995 448.19998 200.99994 442.59998 202.09995 438.99997C 203.29994 435.39996 204.89995 430.89996 205.69995 428.99997C 206.49995 427.09998 208.99995 421.99997 211.09995 417.79996C 213.29994 413.49997 216.89995 406.99997 219.09995 403.29996C 221.39995 399.49997 225.39995 393.59995 227.99994 389.99997C 230.49994 386.39996 233.19994 382.49997 233.79994 381.29996C 234.69994 379.59995 234.79994 370.49997 233.99994 344.29996C 233.49994 325.09995 232.29994 279.39996 231.49994 242.49995C 230.59995 205.59995 229.59995 174.79996 229.39993 173.99995C 228.99994 172.89995 228.29993 173.19995 226.49994 175.49995C 225.19994 177.19995 223.99994 178.89995 223.99994 179.49995C 223.99994 180.09996 221.19994 184.29996 217.79994 188.99995C 214.39995 193.69995 208.29994 201.79996 204.19994 206.99995C 200.09993 212.19995 195.89993 217.19995 194.99994 217.99995C 194.09995 218.79996 192.89993 220.39995 192.29994 221.49995C 191.69994 222.59996 189.49994 225.49995 183.39995 232.49995L183.39995 232.49995L185.19995 244.99995C 186.19995 251.89995 187.89995 266.69995 188.99995 277.99994C 190.19995 289.29993 191.49995 307.69995 191.99995 318.99994C 192.39995 330.29993 192.39995 347.79993 191.89995 357.99994C 191.49995 368.19995 190.59995 380.09995 189.99995 384.49994C 189.39995 388.89993 188.19995 395.89993 187.39995 399.99994C 186.49995 404.09995 184.79994 411.09995 183.49995 415.49994C 182.09996 419.89993 179.59996 426.59995 177.89995 430.49994C 176.19995 434.39993 172.79994 440.39993 170.49995 443.99994C 168.19995 447.59995 163.19995 453.29993 159.39995 456.79993C 155.59995 460.19992 150.29994 464.0999 147.49995 465.39993C 144.79996 466.69992 139.79996 468.59995 136.49995 469.49994C 132.19995 470.79993 128.39995 471.09995 122.999954 470.79993C 118.79996 470.49994 113.999954 469.49994 111.999954 468.49994C 110.09995 467.49994 106.59995 465.39993 104.29996 463.89993C 101.899956 462.29993 98.499954 458.59995 96.59996 455.69992C 94.69996 452.89993 92.39996 448.69992 91.49996 446.4999C 90.59996 444.2999 89.19996 439.3999 88.299965 435.4999C 87.39996 431.19992 86.799965 423.3999 86.799965 414.9999C 86.799965 407.5999 87.49996 396.9999 88.299965 391.4999C 89.19997 385.9999 91.19997 376.0999 92.799965 369.4999C 94.39996 362.8999 98.09997 351.19992 100.99996 343.4999C 103.89996 335.7999 108.49996 324.5999 111.19996 318.4999C 113.899956 312.3999 118.19996 303.69992 120.69996 298.9999C 123.29996 294.2999 126.09996 289.0999 126.99996 287.4999C 127.89996 285.8999 132.29996 278.5999 136.59996 271.4999C 140.99995 264.3999 147.49995 254.49991 150.99995 249.6999C 154.59996 244.79991 159.69995 237.99991 162.29996 234.6999C 164.89996 231.29991 167.09996 227.79991 166.99995 226.99991C 166.99995 226.1999 164.19995 208.79991 160.79996 188.49991C 157.49995 168.1999 154.49995 151.3999 154.29996 151.1999C 154.19995 151.0999 152.29996 152.29991 150.29996 153.8999C 148.19995 155.3999 143.99995 158.2999 140.99995 160.1999C 137.99995 162.1999 132.39995 165.29991 128.49995 167.29991C 124.69995 169.29991 119.499954 171.79991 116.999954 172.79991C 114.499954 173.89992 108.19995 176.09991 102.999954 177.79991C 97.79996 179.39992 88.999954 181.6999 83.499954 182.79991C 77.999954 183.99991 70.19995 185.1999 66.19995 185.6999C 62.19995 186.0999 58.99995 186.6999 58.99995 186.99991C 59.09995 187.29991 60.899952 189.99991 63.09995 192.99991C 65.29995 195.99991 69.39995 201.6999 72.099945 205.49991C 74.79994 209.29991 79.29994 216.59991 81.99995 221.49991C 84.69994 226.3999 86.99995 231.49991 86.99995 232.6999C 86.99995 233.99991 85.89995 236.0999 84.49995 237.49991C 83.19994 238.8999 81.099945 239.99991 79.79995 239.99991C 78.49995 239.99991 76.59995 239.3999 75.49995 238.6999C 74.39995 237.8999 71.29995 233.49991 68.69994 228.8999C 66.099945 224.2999 61.499943 217.0999 58.499943 212.99991C 55.499943 208.8999 49.799942 201.09991 45.799942 195.6999C 41.799942 190.29991 37.699944 184.6999 36.799942 183.1999C 35.799942 181.6999 34.999943 179.49991 34.999943 178.1999C 34.999943 176.99991 35.999943 174.8999 37.299942 173.6999C 39.299942 171.5999 40.799942 171.29991 50.999943 170.5999C 57.299942 170.1999 66.099945 169.4999 70.49994 168.8999C 74.89994 168.3999 82.99994 166.7999 88.49994 165.49991C 93.99994 164.09991 101.89994 161.6999 105.99994 160.1999C 110.09994 158.5999 116.89994 155.5999 120.99994 153.49991C 125.09994 151.3999 131.89993 147.3999 135.99994 144.6999C 140.09995 141.8999 145.29994 137.8999 147.49994 135.8999C 151.49994 132.1999 151.49994 132.0999 150.79994 126.799904C 150.39995 123.8999 149.69994 110.199905 149.39995 96.49991C 148.89995 78.79991 149.09995 68.59991 149.99995 61.49991C 150.59996 55.99991 152.09996 48.599907 153.19995 44.99991C 154.29996 41.39991 156.49995 35.99991 157.99995 32.99991C 159.59996 29.999908 162.29996 26.099909 164.19995 24.399908C 165.99995 22.699907 168.89995 20.799908 170.49995 20.19991C 172.19995 19.599909 174.39995 19.099909 175.49995 19.099909L175.49995 19.099909L175.5 19.1zM166.2 56.5C 164.9 62.7 164.5 69.6 164.5 87.7C 164.5 103.799995 164.9 111.299995 165.7 112.2C 166.59999 113.2 167.3 112.299995 169.3 108C 170.7 105 173 98.9 174.5 94.5C 176 90.1 177.7 82 178.3 76.5C 179.1 69 179.1 64 178.2 56.2C 177.5 50.600002 176.59999 44 176.09999 41.5C 175.7 39 174.79999 37 174.2 37C 173.59999 37 171.9 39.6 170.5 42.8C 169.1 45.899998 167.2 52.1 166.2 56.5zM277.3 45.8C 274.4 47 270.3 49.1 268.3 50.3C 266.19998 51.6 261.8 54.899998 258.5 57.5C 255.2 60.2 249.7 65.3 246.2 68.9C 242.7 72.6 239.9 76 239.9 76.5C 240 77 240.5 78.1 241.2 78.8C 242 79.600006 242.59999 83.200005 242.8 87.3C 242.90001 91.3 244.40001 150.1 246 218C 247.7 285.9 249.3 346 249.6 351.5L249.6 351.5L250.3 361.5C 268.3 343.1 279.8 332 287.5 325.1C 295.2 318.1 307.1 307.9 314 302.4C 320.9 296.9 327.9 291.5 329.5 290.5C 331.1 289.4 333.4 287.7 334.5 286.7C 335.6 285.7 338.8 283.30002 341.5 281.40002C 344.3 279.50003 350.5 275.2 355.4 271.7C 360.3 268.30002 364.3 265.1 364.3 264.5C 364.4 263.9 361.3 261.1 357.5 258.3C 353.4 255.19998 347.4 251.9 343 250.29999C 336.3 247.79999 334.3 247.49998 323.5 247.59999C 313 247.7 310.4 248.09999 302.5 250.7C 297.6 252.3 291.1 255.3 288.3 257.3C 285.4 259.4 282.8 261 282.5 261C 282.2 261 279.8 262.6 277 264.5C 274.3 266.4 271.2 268 270.3 268C 269.3 268.1 267.3 267.2 265.8 266C 263.59998 264.5 263 263.2 263 260.3C 263 257.5 263.6 255.79999 265.6 253.99998C 267 252.59999 273.2 245.89998 279.4 238.99998C 285.6 232.09999 293.4 222.89998 297 218.49998C 300.5 214.09999 306.4 205.79999 310.3 199.99998C 314.09998 194.19998 319.8 184.79999 322.9 178.99998C 326 173.19998 329.8 165.79999 331.19998 162.49998C 332.69998 159.19998 334.69998 154.29999 335.8 151.49998C 336.9 148.79999 338.9 142.19998 340.3 136.99998C 341.69998 131.79999 343.3 123.999985 343.9 119.79999C 344.5 115.499985 345 107.79999 345 102.79999C 345 97.19999 344.1 89.89999 343 84.499985C 341.9 79.59998 339.3 72.09998 337.2 67.999985C 335.2 63.899986 331 57.899986 328 54.699986C 324.6 50.999985 320.3 47.699986 316.5 45.899986C 313.2 44.299988 307.8 42.499985 304.5 41.999985C 301.2 41.499985 297.8 41.099983 297 41.099983C 296.2 41.19998 292.6 41.69998 289 42.399982C 285.4 43.099983 280.1 44.599983 277.3 45.799984zM154.29999 272.5C 150.99998 277.5 144.9 287.6 140.69998 295C 136.59998 302.4 130.59998 313.9 127.499985 320.5C 124.39999 327.1 120.09998 336.8 117.999985 342C 115.89999 347.2 112.89999 356 111.19998 361.5C 109.39998 367 107.19998 375.3 106.09998 380C 104.999985 384.7 103.59998 392.6 102.89999 397.5C 102.19999 402.8 101.999985 411.7 102.29999 419C 102.59999 426 103.499985 433.7 104.39999 436.5C 105.19999 439.3 107.29999 443.6 108.999985 446.3C 110.89999 449.19998 113.499985 451.8 115.999985 453C 118.29999 454.2 121.999985 455 124.79999 455C 127.39999 455 131.99998 454.3 134.99998 453.4C 137.99998 452.5 142.29999 450.5 144.49998 449C 146.69998 447.4 150.19998 444.5 152.19998 442.3C 154.19998 440.19998 157.49998 435.8 159.49998 432.5C 161.39998 429.2 164.39998 423.1 165.99998 419C 167.49998 414.9 169.09999 410.4 169.39998 409C 169.69998 407.6 170.89998 402.7 171.99998 398C 173.09999 393.3 174.59999 383.3 175.49998 375.8C 176.39998 367.4 176.99998 353.09998 176.99998 339.3C 176.99998 326.69998 176.29999 308.19998 175.49998 298C 174.69998 287.8 173.29999 273.2 172.39998 265.5C 171.59998 257.8 170.79997 251.1 170.69998 250.6C 170.59998 250.1 168.19998 252.8 165.39998 256.6C 162.59998 260.4 157.59998 267.6 154.29997 272.5zM371.5 279.2C 369.9 280.5 365.1 283.80002 361 286.5C 356.9 289.2 353.3 291.7 353 292C 352.7 292.3 348.7 295.5 344 299.1C 339.3 302.7 334.8 306.1 333.9 306.6C 333 307.1 327.8 311.1 322.4 315.5C 317 319.9 306.5 328.9 299.1 335.6C 291.6 342.30002 280.1 353.30002 273.5 360.1C 266.9 366.9 259.7 374.7 257.5 377.4C 255.3 380.1 252.1 383.9 250.5 385.9C 248.8 387.9 246.1 391.3 244.5 393.5C 242.8 395.7 239.9 400 238 403C 236.2 406 233.9 409.4 232.9 410.5C 232 411.6 228.7 417.5 225.7 423.5C 222.59999 429.6 219.59999 435.9 218.9 437.5C 218.2 439.2 216.9 443.4 215.9 447C 214.9 450.6 213.79999 457.1 213.4 461.5C 212.9 467.4 213.09999 470.9 214.29999 475C 215.19998 478 217.29999 482.4 218.9 484.8C 221.09999 487.8 223.7 489.69998 227.79999 491.59998C 230.9 492.99997 236.9 494.49997 240.99998 495.09998C 245.59999 495.59998 251.59999 495.59998 256.5 495.09998C 260.9 494.59998 266.5 493.69998 269 493.09998C 271.5 492.49997 277.1 490.99997 281.5 489.59998C 285.9 488.3 293.1 485.59998 297.5 483.69998C 301.9 481.8 309.6 478.19998 314.5 475.59998C 319.5 473.09998 325.1 470.09998 327 468.99997C 328.9 467.89996 332 465.69998 333.9 464.19998C 335.8 462.69998 340.6 458.9 344.4 455.59998C 348.3 452.39996 353.8 447.19998 356.5 444.09998C 359.3 440.99997 363.1 436.49997 365.1 433.99997C 367 431.49997 370.7 426.09998 373.30002 421.99997C 375.80002 417.89996 379.2 411.59998 380.80002 407.99997C 382.50003 404.39996 384.80002 398.79996 385.90002 395.49997C 387.10004 392.19998 389.00003 386.19998 390.00003 382.29996C 391.10004 378.29996 392.70004 368.79996 393.60004 361.29996C 395.00003 349.69995 395.00003 345.59995 394.00003 335.49997C 393.40002 328.89996 392.00003 319.69998 391.00003 314.99997C 389.90002 310.29996 388.00003 303.49997 386.60004 299.79996C 385.10004 295.99997 382.70004 290.39996 381.10004 287.29996C 379.50003 284.09995 377.40002 280.39996 376.40002 279.09995L376.40002 279.09995L374.50003 276.79996zM469 388.5C 470.9 388.8 473.6 390 474.9 391.3C 476.19998 392.5 478.1 395.4 479.1 397.8C 480.7 401.19998 480.80002 402.8 480 406.3C 479.5 408.59998 478.2 411.59998 477.2 413C 476.2 414.4 474.2 416.1 472.90002 416.7C 471.60004 417.40002 468.90002 418 467.00003 418C 464.30002 417.9 462.70004 417.1 460.00003 414.2C 458.10004 412.2 455.90002 408.7 455.30002 406.5C 454.6 404.3 454.00003 401.3 454.00003 399.8C 454.00003 398.19998 455.10004 395.59998 456.30002 393.9C 457.6 392.1 460.2 390.1 462.1 389.4C 464 388.6 467.1 388.19998 469 388.5z" stroke="none"  fill="#010101" fill-rule="nonzero" />
	<path  d="M175.5 19.1C 176.6 19.1 179.4 20.2 181.8 21.5C 184.1 22.9 186.5 25 187.1 26.2C 187.8 27.5 188.90001 30.5 189.6 33C 190.3 35.5 191.6 41.8 192.5 47C 193.3 52.2 194 61 194 66.5C 194 72 193.5 79.7 193 83.5C 192.4 87.3 190.8 94.3 189.4 99C 188 103.7 185.09999 110.9 182.9 115C 180.79999 119.1 176.59999 125.9 173.5 130C 169.3 135.7 168.1 138.1 168.5 140C 168.7 141.4 171.2 156.7 174 174C 176.8 191.3 179.4 206.9 179.8 208.7C 180.5 211.8 180.6 211.7 192.5 196.3C 199.1 187.8 206.9 177.40001 209.8 173.2C 212.7 169 217.6 160.3 226.5 142.59999L226.5 142.59999L226.2 123.99999C 226.09999 113.799995 225.7 105.29999 225.5 104.99999C 225.2 104.69999 223.1 106.399994 220.7 108.69999C 218.4 110.99999 215.2 113.29999 213.5 113.59999C 211.5 114.09999 209.6 113.79999 207.8 112.69999C 206.2 111.69999 204.8 110.09999 204.5 108.99999C 204.2 107.899994 204.5 105.299995 205.2 103.19999C 205.8 101.19999 208.59999 95.69999 211.3 90.99999C 214.1 86.299995 218.3 79.59999 220.8 75.99999C 223.3 72.399994 227.6 66.799995 230.3 63.499992C 233.1 60.199993 238.3 54.699993 241.90001 51.199993C 245.50002 47.79999 251.40001 42.999992 255.00002 40.59999C 258.6 38.29999 263.5 35.19999 266 33.79999C 268.5 32.39999 273.4 30.299992 277 29.09999C 280.6 27.99999 286.9 26.59999 291 26.09999C 295.8 25.39999 301 25.39999 305.3 25.99999C 309 26.59999 314.59998 27.99999 317.8 29.199991C 320.9 30.299992 325.19998 32.39999 327.3 33.69999C 329.3 34.89999 334.3 39.299988 338.3 43.299988C 342.19998 47.19999 346.8 52.799988 348.5 55.49999C 350.1 58.299988 352.7 63.59999 354.1 67.499985C 355.6 71.29999 357.6 78.499985 358.5 83.499985C 359.9 90.59998 360.1 95.89999 359.7 108.499985C 359.30002 120.69998 358.6 126.999985 356.7 134.99998C 355.30002 140.79999 352.40002 150.39998 350.2 156.49998C 348.1 162.59999 345.80002 168.39998 345.2 169.49998C 344.6 170.59999 342.80002 174.19998 341.2 177.49998C 339.6 180.79999 336.6 186.69998 334.5 190.49998C 332.3 194.29999 328.3 201.09999 325.4 205.49998C 322.5 209.89998 318.3 215.99998 316.1 218.99998C 313.9 221.99998 310.6 226.49998 305.5 233.39998L305.5 233.39998L308.5 232.69998C 310.1 232.29999 315.6 231.69998 320.5 231.29999C 327.1 230.9 331.8 231.19998 338 232.49998C 342.7 233.49998 348.8 235.19998 351.5 236.39998C 354.3 237.69998 359 240.19998 362 242.19998C 365 244.09998 370.1 247.99998 379 255.99998L379 255.99998L383.3 253.09999C 385.59998 251.49998 390 248.7 393 246.79999C 396 244.9 400.5 242.09999 403 240.49998C 405.5 238.89998 410.4 235.99998 414 233.89998C 417.6 231.89998 425.4 227.39998 431.5 223.99998C 437.6 220.49998 446.6 215.49998 451.5 212.79999C 456.4 210.09999 468.9 203.69998 479.3 198.49998C 489.59998 193.29999 498.69998 188.99998 499.5 188.99998C 500.3 188.99998 502.4 190.29999 504 191.99998C 505.6 193.69998 507 195.89998 507 196.99998C 507 198.09999 505.8 200.29999 504.3 201.89998C 502.69998 203.49998 493.9 208.69998 484.5 213.39998C 475.1 218.09998 462.8 224.49998 457 227.59998C 451.2 230.69998 442.2 235.69998 437 238.69998C 431.8 241.69998 426.8 244.59998 426 245.09998C 425.2 245.59998 422.5 247.19998 420 248.59998C 417.5 250.09998 412.1 253.39998 408 255.99997C 403.9 258.59998 398.9 261.49997 397 262.49997C 395.1 263.49997 392.3 265.19998 388.2 268.49997L388.2 268.49997L390.5 271.99997C 391.7 273.89996 393.9 277.99997 395.3 280.99997C 396.8 283.99997 398.59998 288.49997 399.5 290.99997C 400.4 293.49997 402.2 298.59998 403.5 302.49997C 404.8 306.39996 406.6 313.59998 407.4 318.49997C 408.3 323.39996 409.3 333.09998 409.69998 339.99997C 410.09998 348.89996 409.8 356.19998 408.59998 365.49997C 407.69998 372.59998 405.8 382.79996 404.39996 387.99997C 402.99997 393.19998 400.09998 401.99997 397.89996 407.49997C 395.79996 412.99997 391.89996 420.99997 389.19995 425.39996C 386.59995 429.69995 384.09995 433.99997 383.49994 434.89996C 382.89993 435.79996 381.39993 438.09998 380.09995 439.99997C 378.69995 441.89996 376.49994 444.79996 375.09995 446.49997C 373.69995 448.09998 367.99994 453.99997 362.49994 459.49997C 356.99994 464.99997 349.79993 471.59998 346.49994 474.09998C 343.19995 476.69998 336.39993 481.19998 331.49994 484.09998C 326.59995 487.09998 318.19995 491.49997 312.99994 493.89996C 307.79993 496.19995 301.69995 498.99997 299.49994 499.99997C 297.29993 500.99997 291.19995 503.19998 285.99994 504.79996C 280.79993 506.49997 272.39993 508.59995 267.49994 509.59995C 261.99994 510.69995 254.19994 511.29996 247.49994 511.29996C 238.79994 511.19995 234.99994 510.69995 228.99994 508.79996C 224.89993 507.49997 219.49994 504.99997 216.99994 503.29996C 214.49994 501.69995 210.29994 497.89996 207.69994 494.89996C 204.99994 491.89996 201.89993 486.99997 200.79994 483.99997C 199.29994 480.09998 198.49994 475.39996 198.19994 467.99997C 197.99994 462.19998 198.29994 454.79996 198.99994 451.49997C 199.59995 448.19998 200.99994 442.59998 202.09995 438.99997C 203.29994 435.39996 204.89995 430.89996 205.69995 428.99997C 206.49995 427.09998 208.99995 421.99997 211.09995 417.79996C 213.29994 413.49997 216.89995 406.99997 219.09995 403.29996C 221.39995 399.49997 225.39995 393.59995 227.99994 389.99997C 230.49994 386.39996 233.19994 382.49997 233.79994 381.29996C 234.69994 379.59995 234.79994 370.49997 233.99994 344.29996C 233.49994 325.09995 232.29994 279.39996 231.49994 242.49995C 230.59995 205.59995 229.59995 174.79996 229.39993 173.99995C 228.99994 172.89995 228.29993 173.19995 226.49994 175.49995C 225.19994 177.19995 223.99994 178.89995 223.99994 179.49995C 223.99994 180.09996 221.19994 184.29996 217.79994 188.99995C 214.39995 193.69995 208.29994 201.79996 204.19994 206.99995C 200.09993 212.19995 195.89993 217.19995 194.99994 217.99995C 194.09995 218.79996 192.89993 220.39995 192.29994 221.49995C 191.69994 222.59996 189.49994 225.49995 183.39995 232.49995L183.39995 232.49995L185.19995 244.99995C 186.19995 251.89995 187.89995 266.69995 188.99995 277.99994C 190.19995 289.29993 191.49995 307.69995 191.99995 318.99994C 192.39995 330.29993 192.39995 347.79993 191.89995 357.99994C 191.49995 368.19995 190.59995 380.09995 189.99995 384.49994C 189.39995 388.89993 188.19995 395.89993 187.39995 399.99994C 186.49995 404.09995 184.79994 411.09995 183.49995 415.49994C 182.09996 419.89993 179.59996 426.59995 177.89995 430.49994C 176.19995 434.39993 172.79994 440.39993 170.49995 443.99994C 168.19995 447.59995 163.19995 453.29993 159.39995 456.79993C 155.59995 460.19992 150.29994 464.0999 147.49995 465.39993C 144.79996 466.69992 139.79996 468.59995 136.49995 469.49994C 132.19995 470.79993 128.39995 471.09995 122.999954 470.79993C 118.79996 470.49994 113.999954 469.49994 111.999954 468.49994C 110.09995 467.49994 106.59995 465.39993 104.29996 463.89993C 101.899956 462.29993 98.499954 458.59995 96.59996 455.69992C 94.69996 452.89993 92.39996 448.69992 91.49996 446.4999C 90.59996 444.2999 89.19996 439.3999 88.299965 435.4999C 87.39996 431.19992 86.799965 423.3999 86.799965 414.9999C 86.799965 407.5999 87.49996 396.9999 88.299965 391.4999C 89.19997 385.9999 91.19997 376.0999 92.799965 369.4999C 94.39996 362.8999 98.09997 351.19992 100.99996 343.4999C 103.89996 335.7999 108.49996 324.5999 111.19996 318.4999C 113.899956 312.3999 118.19996 303.69992 120.69996 298.9999C 123.29996 294.2999 126.09996 289.0999 126.99996 287.4999C 127.89996 285.8999 132.29996 278.5999 136.59996 271.4999C 140.99995 264.3999 147.49995 254.49991 150.99995 249.6999C 154.59996 244.79991 159.69995 237.99991 162.29996 234.6999C 164.89996 231.29991 167.09996 227.79991 166.99995 226.99991C 166.99995 226.1999 164.19995 208.79991 160.79996 188.49991C 157.49995 168.1999 154.49995 151.3999 154.29996 151.1999C 154.19995 151.0999 152.29996 152.29991 150.29996 153.8999C 148.19995 155.3999 143.99995 158.2999 140.99995 160.1999C 137.99995 162.1999 132.39995 165.29991 128.49995 167.29991C 124.69995 169.29991 119.499954 171.79991 116.999954 172.79991C 114.499954 173.89992 108.19995 176.09991 102.999954 177.79991C 97.79996 179.39992 88.999954 181.6999 83.499954 182.79991C 77.999954 183.99991 70.19995 185.1999 66.19995 185.6999C 62.19995 186.0999 58.99995 186.6999 58.99995 186.99991C 59.09995 187.29991 60.899952 189.99991 63.09995 192.99991C 65.29995 195.99991 69.39995 201.6999 72.099945 205.49991C 74.79994 209.29991 79.29994 216.59991 81.99995 221.49991C 84.69994 226.3999 86.99995 231.49991 86.99995 232.6999C 86.99995 233.99991 85.89995 236.0999 84.49995 237.49991C 83.19994 238.8999 81.099945 239.99991 79.79995 239.99991C 78.49995 239.99991 76.59995 239.3999 75.49995 238.6999C 74.39995 237.8999 71.29995 233.49991 68.69994 228.8999C 66.099945 224.2999 61.499943 217.0999 58.499943 212.99991C 55.499943 208.8999 49.799942 201.09991 45.799942 195.6999C 41.799942 190.29991 37.699944 184.6999 36.799942 183.1999C 35.799942 181.6999 34.999943 179.49991 34.999943 178.1999C 34.999943 176.99991 35.999943 174.8999 37.299942 173.6999C 39.299942 171.5999 40.799942 171.29991 50.999943 170.5999C 57.299942 170.1999 66.099945 169.4999 70.49994 168.8999C 74.89994 168.3999 82.99994 166.7999 88.49994 165.49991C 93.99994 164.09991 101.89994 161.6999 105.99994 160.1999C 110.09994 158.5999 116.89994 155.5999 120.99994 153.49991C 125.09994 151.3999 131.89993 147.3999 135.99994 144.6999C 140.09995 141.8999 145.29994 137.8999 147.49994 135.8999C 151.49994 132.1999 151.49994 132.0999 150.79994 126.799904C 150.39995 123.8999 149.69994 110.199905 149.39995 96.49991C 148.89995 78.79991 149.09995 68.59991 149.99995 61.49991C 150.59996 55.99991 152.09996 48.599907 153.19995 44.99991C 154.29996 41.39991 156.49995 35.99991 157.99995 32.99991C 159.59996 29.999908 162.29996 26.099909 164.19995 24.399908C 165.99995 22.699907 168.89995 20.799908 170.49995 20.19991C 172.19995 19.599909 174.39995 19.099909 175.49995 19.099909L175.49995 19.099909L175.5 19.1zM166.2 56.5C 164.9 62.7 164.5 69.6 164.5 87.7C 164.5 103.799995 164.9 111.299995 165.7 112.2C 166.59999 113.2 167.3 112.299995 169.3 108C 170.7 105 173 98.9 174.5 94.5C 176 90.1 177.7 82 178.3 76.5C 179.1 69 179.1 64 178.2 56.2C 177.5 50.600002 176.59999 44 176.09999 41.5C 175.7 39 174.79999 37 174.2 37C 173.59999 37 171.9 39.6 170.5 42.8C 169.1 45.899998 167.2 52.1 166.2 56.5zM277.3 45.8C 274.4 47 270.3 49.1 268.3 50.3C 266.19998 51.6 261.8 54.899998 258.5 57.5C 255.2 60.2 249.7 65.3 246.2 68.9C 242.7 72.6 239.9 76 239.9 76.5C 240 77 240.5 78.1 241.2 78.8C 242 79.600006 242.59999 83.200005 242.8 87.3C 242.90001 91.3 244.40001 150.1 246 218C 247.7 285.9 249.3 346 249.6 351.5L249.6 351.5L250.3 361.5C 268.3 343.1 279.8 332 287.5 325.1C 295.2 318.1 307.1 307.9 314 302.4C 320.9 296.9 327.9 291.5 329.5 290.5C 331.1 289.4 333.4 287.7 334.5 286.7C 335.6 285.7 338.8 283.30002 341.5 281.40002C 344.3 279.50003 350.5 275.2 355.4 271.7C 360.3 268.30002 364.3 265.1 364.3 264.5C 364.4 263.9 361.3 261.1 357.5 258.3C 353.4 255.19998 347.4 251.9 343 250.29999C 336.3 247.79999 334.3 247.49998 323.5 247.59999C 313 247.7 310.4 248.09999 302.5 250.7C 297.6 252.3 291.1 255.3 288.3 257.3C 285.4 259.4 282.8 261 282.5 261C 282.2 261 279.8 262.6 277 264.5C 274.3 266.4 271.2 268 270.3 268C 269.3 268.1 267.3 267.2 265.8 266C 263.59998 264.5 263 263.2 263 260.3C 263 257.5 263.6 255.79999 265.6 253.99998C 267 252.59999 273.2 245.89998 279.4 238.99998C 285.6 232.09999 293.4 222.89998 297 218.49998C 300.5 214.09999 306.4 205.79999 310.3 199.99998C 314.09998 194.19998 319.8 184.79999 322.9 178.99998C 326 173.19998 329.8 165.79999 331.19998 162.49998C 332.69998 159.19998 334.69998 154.29999 335.8 151.49998C 336.9 148.79999 338.9 142.19998 340.3 136.99998C 341.69998 131.79999 343.3 123.999985 343.9 119.79999C 344.5 115.499985 345 107.79999 345 102.79999C 345 97.19999 344.1 89.89999 343 84.499985C 341.9 79.59998 339.3 72.09998 337.2 67.999985C 335.2 63.899986 331 57.899986 328 54.699986C 324.6 50.999985 320.3 47.699986 316.5 45.899986C 313.2 44.299988 307.8 42.499985 304.5 41.999985C 301.2 41.499985 297.8 41.099983 297 41.099983C 296.2 41.19998 292.6 41.69998 289 42.399982C 285.4 43.099983 280.1 44.599983 277.3 45.799984zM154.29999 272.5C 150.99998 277.5 144.9 287.6 140.69998 295C 136.59998 302.4 130.59998 313.9 127.499985 320.5C 124.39999 327.1 120.09998 336.8 117.999985 342C 115.89999 347.2 112.89999 356 111.19998 361.5C 109.39998 367 107.19998 375.3 106.09998 380C 104.999985 384.7 103.59998 392.6 102.89999 397.5C 102.19999 402.8 101.999985 411.7 102.29999 419C 102.59999 426 103.499985 433.7 104.39999 436.5C 105.19999 439.3 107.29999 443.6 108.999985 446.3C 110.89999 449.19998 113.499985 451.8 115.999985 453C 118.29999 454.2 121.999985 455 124.79999 455C 127.39999 455 131.99998 454.3 134.99998 453.4C 137.99998 452.5 142.29999 450.5 144.49998 449C 146.69998 447.4 150.19998 444.5 152.19998 442.3C 154.19998 440.19998 157.49998 435.8 159.49998 432.5C 161.39998 429.2 164.39998 423.1 165.99998 419C 167.49998 414.9 169.09999 410.4 169.39998 409C 169.69998 407.6 170.89998 402.7 171.99998 398C 173.09999 393.3 174.59999 383.3 175.49998 375.8C 176.39998 367.4 176.99998 353.09998 176.99998 339.3C 176.99998 326.69998 176.29999 308.19998 175.49998 298C 174.69998 287.8 173.29999 273.2 172.39998 265.5C 171.59998 257.8 170.79997 251.1 170.69998 250.6C 170.59998 250.1 168.19998 252.8 165.39998 256.6C 162.59998 260.4 157.59998 267.6 154.29997 272.5zM371.5 279.2C 369.9 280.5 365.1 283.80002 361 286.5C 356.9 289.2 353.3 291.7 353 292C 352.7 292.3 348.7 295.5 344 299.1C 339.3 302.7 334.8 306.1 333.9 306.6C 333 307.1 327.8 311.1 322.4 315.5C 317 319.9 306.5 328.9 299.1 335.6C 291.6 342.30002 280.1 353.30002 273.5 360.1C 266.9 366.9 259.7 374.7 257.5 377.4C 255.3 380.1 252.1 383.9 250.5 385.9C 248.8 387.9 246.1 391.3 244.5 393.5C 242.8 395.7 239.9 400 238 403C 236.2 406 233.9 409.4 232.9 410.5C 232 411.6 228.7 417.5 225.7 423.5C 222.59999 429.6 219.59999 435.9 218.9 437.5C 218.2 439.2 216.9 443.4 215.9 447C 214.9 450.6 213.79999 457.1 213.4 461.5C 212.9 467.4 213.09999 470.9 214.29999 475C 215.19998 478 217.29999 482.4 218.9 484.8C 221.09999 487.8 223.7 489.69998 227.79999 491.59998C 230.9 492.99997 236.9 494.49997 240.99998 495.09998C 245.59999 495.59998 251.59999 495.59998 256.5 495.09998C 260.9 494.59998 266.5 493.69998 269 493.09998C 271.5 492.49997 277.1 490.99997 281.5 489.59998C 285.9 488.3 293.1 485.59998 297.5 483.69998C 301.9 481.8 309.6 478.19998 314.5 475.59998C 319.5 473.09998 325.1 470.09998 327 468.99997C 328.9 467.89996 332 465.69998 333.9 464.19998C 335.8 462.69998 340.6 458.9 344.4 455.59998C 348.3 452.39996 353.8 447.19998 356.5 444.09998C 359.3 440.99997 363.1 436.49997 365.1 433.99997C 367 431.49997 370.7 426.09998 373.30002 421.99997C 375.80002 417.89996 379.2 411.59998 380.80002 407.99997C 382.50003 404.39996 384.80002 398.79996 385.90002 395.49997C 387.10004 392.19998 389.00003 386.19998 390.00003 382.29996C 391.10004 378.29996 392.70004 368.79996 393.60004 361.29996C 395.00003 349.69995 395.00003 345.59995 394.00003 335.49997C 393.40002 328.89996 392.00003 319.69998 391.00003 314.99997C 389.90002 310.29996 388.00003 303.49997 386.60004 299.79996C 385.10004 295.99997 382.70004 290.39996 381.10004 287.29996C 379.50003 284.09995 377.40002 280.39996 376.40002 279.09995L376.40002 279.09995L374.50003 276.79996zM469 388.5C 470.9 388.8 473.6 390 474.9 391.3C 476.19998 392.5 478.1 395.4 479.1 397.8C 480.7 401.19998 480.80002 402.8 480 406.3C 479.5 408.59998 478.2 411.59998 477.2 413C 476.2 414.4 474.2 416.1 472.90002 416.7C 471.60004 417.40002 468.90002 418 467.00003 418C 464.30002 417.9 462.70004 417.1 460.00003 414.2C 458.10004 412.2 455.90002 408.7 455.30002 406.5C 454.6 404.3 454.00003 401.3 454.00003 399.8C 454.00003 398.19998 455.10004 395.59998 456.30002 393.9C 457.6 392.1 460.2 390.1 462.1 389.4C 464 388.6 467.1 388.19998 469 388.5z" stroke="#000000" stroke-width="1"  fill="#000000" fill-rule="nonzero" fill-opacity="0.49803922" />
</g>
</svg>
